<svg xmlns="http://www.w3.org/2000/svg" width="1600" height="900" viewBox="0 0 1600 900">
  <rect width="1600" height="900" fill="#2994FF"/>
  <ellipse cx="130.00" cy="215.00" rx="87.42" ry="39.48" fill="#0078F0"/>
  <ellipse cx="130.00" cy="215.00" rx="60.63" ry="21.62" fill="#2994FF"/>
  <path d="M 47.85,201.50 A 87.42,39.48 0 0 1 86.29,180.81 Z" fill="#3D9EFF"/>
  <ellipse cx="130.00" cy="450.00" rx="87.42" ry="39.48" fill="#0078F0"/>
  <ellipse cx="130.00" cy="450.00" rx="60.63" ry="21.62" fill="#2994FF"/>
  <path d="M 47.85,436.50 A 87.42,39.48 0 0 1 86.29,415.81 Z" fill="#3D9EFF"/>
  <ellipse cx="130.00" cy="685.00" rx="87.42" ry="39.48" fill="#0078F0"/>
  <ellipse cx="130.00" cy="685.00" rx="60.63" ry="21.62" fill="#2994FF"/>
  <path d="M 47.85,671.50 A 87.42,39.48 0 0 1 86.29,650.81 Z" fill="#3D9EFF"/>
  <ellipse cx="340.00" cy="215.00" rx="87.42" ry="39.48" fill="#0080FF"/>
  <ellipse cx="340.00" cy="215.00" rx="60.63" ry="21.62" fill="#2994FF"/>
  <path d="M 257.85,201.50 A 87.42,39.48 0 0 1 296.29,180.81 Z" fill="#4DA6FF"/>
  <ellipse cx="340.00" cy="450.00" rx="87.42" ry="39.48" fill="#0080FF"/>
  <ellipse cx="340.00" cy="450.00" rx="60.63" ry="21.62" fill="#2994FF"/>
  <path d="M 257.85,436.50 A 87.42,39.48 0 0 1 296.29,415.81 Z" fill="#4DA6FF"/>
  <ellipse cx="340.00" cy="685.00" rx="87.42" ry="39.48" fill="#0080FF"/>
  <ellipse cx="340.00" cy="685.00" rx="60.63" ry="21.62" fill="#2994FF"/>
  <path d="M 257.85,671.50 A 87.42,39.48 0 0 1 296.29,650.81 Z" fill="#4DA6FF"/>
  <ellipse cx="550.00" cy="215.00" rx="87.42" ry="39.48" fill="#1087FF"/>
  <ellipse cx="550.00" cy="215.00" rx="60.63" ry="21.62" fill="#2994FF"/>
  <path d="M 467.85,201.50 A 87.42,39.48 0 0 1 506.29,180.81 Z" fill="#5CADFF"/>
  <ellipse cx="550.00" cy="450.00" rx="87.42" ry="39.48" fill="#1087FF"/>
  <ellipse cx="550.00" cy="450.00" rx="60.63" ry="21.62" fill="#2994FF"/>
  <path d="M 467.85,436.50 A 87.42,39.48 0 0 1 506.29,415.81 Z" fill="#5CADFF"/>
  <ellipse cx="550.00" cy="685.00" rx="87.42" ry="39.48" fill="#1087FF"/>
  <ellipse cx="550.00" cy="685.00" rx="60.63" ry="21.62" fill="#2994FF"/>
  <path d="M 467.85,671.50 A 87.42,39.48 0 0 1 506.29,650.81 Z" fill="#5CADFF"/>
  <ellipse cx="760.00" cy="215.00" rx="87.42" ry="39.48" fill="#1F8FFF"/>
  <ellipse cx="760.00" cy="215.00" rx="60.63" ry="21.62" fill="#2994FF"/>
  <path d="M 677.85,201.50 A 87.42,39.48 0 0 1 716.29,180.81 Z" fill="#6BB5FF"/>
  <ellipse cx="760.00" cy="450.00" rx="87.42" ry="39.48" fill="#1F8FFF"/>
  <ellipse cx="760.00" cy="450.00" rx="60.63" ry="21.62" fill="#2994FF"/>
  <path d="M 677.85,436.50 A 87.42,39.48 0 0 1 716.29,415.81 Z" fill="#6BB5FF"/>
  <ellipse cx="760.00" cy="685.00" rx="87.42" ry="39.48" fill="#1F8FFF"/>
  <ellipse cx="760.00" cy="685.00" rx="60.63" ry="21.62" fill="#2994FF"/>
  <path d="M 677.85,671.50 A 87.42,39.48 0 0 1 716.29,650.81 Z" fill="#6BB5FF"/>
  <ellipse cx="1270.00" cy="450.00" rx="230.64" ry="104.16" fill="#0073E6"/>
  <ellipse cx="1270.00" cy="450.00" rx="159.96" ry="57.04" fill="#2994FF"/>
  <path d="M 1053.27,414.38 A 230.64,104.16 0 0 1 1154.68,359.79 Z" fill="#C2E0FF"/>
</svg>
